<svg width="500" height="500" viewBox="0 0 500 500" fill="none" xmlns="http://www.w3.org/2000/svg">
<path d="M35.92 170.63C35.92 164.02 41.28 158.67 47.88 158.67C48.54 158.67 49.17 158.74 49.8 158.84C52.52 153.79 57.86 150.35 64 150.35C64.2 150.35 64.39 150.37 64.59 150.38C64.22 148.89 64 147.34 64 145.74C64 135.17 72.57 126.6 83.14 126.6C93.71 126.6 102.28 135.17 102.28 145.74C102.28 147.34 102.06 148.89 101.69 150.38C101.89 150.38 102.08 150.35 102.28 150.35C111.19 150.35 118.4 157.57 118.4 166.47C118.4 175.38 111.18 182.59 102.28 182.59H46.32L46.33 182.48C40.46 181.72 35.92 176.71 35.92 170.63Z" fill="#E6E6E6"/>
<path d="M464.08 86.07C464.08 79.56 458.8 74.28 452.29 74.28C451.64 74.28 451.01 74.35 450.4 74.45C447.72 69.47 442.45 66.08 436.4 66.08C436.2 66.08 436.01 66.1 435.82 66.11C436.19 64.64 436.4 63.12 436.4 61.54C436.4 51.12 427.95 42.67 417.53 42.67C407.11 42.67 398.66 51.12 398.66 61.54C398.66 63.12 398.88 64.65 399.24 66.11C399.05 66.11 398.85 66.08 398.66 66.08C389.88 66.08 382.76 73.2 382.76 81.98C382.76 90.76 389.88 97.88 398.66 97.88H453.83V97.77C459.61 97.02 464.09 92.08 464.09 86.09L464.08 86.07Z" fill="#E6E6E6"/>
<g opacity="0.03">
<path d="M261.26 457.35C364.007 457.35 447.3 448.745 447.3 438.13C447.3 427.515 364.007 418.91 261.26 418.91C158.513 418.91 75.22 427.515 75.22 438.13C75.22 448.745 158.513 457.35 261.26 457.35Z" fill="#000001"/>
</g>
<path d="M373.14 378.48C372.25 378.48 371.35 378.34 370.46 378.04C366.06 376.56 363.68 371.8 365.16 367.39C399.04 266.36 366.4 213.5 366.07 212.97C363.58 209.07 364.69 203.87 368.58 201.36C372.47 198.85 377.64 199.93 380.17 203.81C381.72 206.19 417.8 263.32 381.1 372.74C379.92 376.26 376.64 378.48 373.13 378.48H373.14Z" fill="#24285B"/>
<path d="M138.7 336.33C127.34 336.33 117.41 331.37 110.82 322.21C89.35 292.34 131.11 241.75 135.94 236.08C138.95 232.54 144.26 232.12 147.79 235.14C151.32 238.15 151.75 243.46 148.74 246.99C138.72 258.77 112.75 296.08 124.48 312.39C128.65 318.2 134.8 320.47 142.73 319.17C158.74 316.54 179.64 298.58 188.59 269.36C189.95 264.92 194.65 262.42 199.09 263.78C203.53 265.14 206.03 269.84 204.67 274.28C194.84 306.36 170.5 331.64 145.46 335.76C143.16 336.14 140.91 336.32 138.71 336.32L138.7 336.33Z" fill="#24285B"/>
<path d="M128.73 229.23C128.73 229.23 110.9 232.07 112.93 245.51C114.96 258.95 135.83 276.32 150.38 270.76C164.93 265.21 157.36 241.53 157.36 241.53L128.73 229.22V229.23Z" fill="#FFD200"/>
<path opacity="0.44" d="M128.73 229.23C128.73 229.23 110.9 232.07 112.93 245.51C114.96 258.95 135.83 276.32 150.38 270.76C164.93 265.21 157.36 241.53 157.36 241.53L128.73 229.22V229.23Z" fill="#909090"/>
<path d="M300.66 408.83C299.89 408.83 299.11 408.72 298.33 408.5C293.87 407.22 291.29 402.56 292.57 398.1C305.14 354.32 304.09 290.77 304.08 290.13C303.99 285.49 307.69 281.65 312.33 281.56C316.95 281.47 320.81 285.16 320.9 289.81C320.95 292.51 322.02 356.51 308.74 402.75C307.68 406.44 304.32 408.84 300.66 408.84V408.83Z" fill="#24285B"/>
<path d="M326.55 354.87H282.1V439.66H366.84L321.74 412L326.55 354.87Z" fill="#909090"/>
<path d="M244.32 408.83C240.66 408.83 237.3 406.43 236.24 402.74C222.75 355.76 235.53 291.04 236.08 288.31C237 283.76 241.43 280.81 245.98 281.73C250.53 282.65 253.48 287.08 252.57 291.63C252.44 292.26 240.06 355.1 252.41 398.1C253.69 402.56 251.11 407.22 246.65 408.5C245.87 408.72 245.09 408.83 244.32 408.83Z" fill="#24285B"/>
<path d="M269.42 317.27C341.653 317.27 400.21 258.713 400.21 186.48C400.21 114.247 341.653 55.69 269.42 55.69C197.187 55.69 138.63 114.247 138.63 186.48C138.63 258.713 197.187 317.27 269.42 317.27Z" fill="#7F7DB5"/>
<path opacity="0.09" d="M348.43 82.51C361.31 98.4 370.66 117.53 374.97 138.97C389.22 209.79 343.36 278.74 272.54 292.99C234.18 300.71 196.38 290.76 167.51 268.79C197.16 305.38 245.61 324.69 294.99 314.76C365.81 300.51 411.67 231.56 397.42 160.74C390.89 128.29 372.85 101.1 348.43 82.51Z" fill="#000001"/>
<path d="M230.579 190.945C237.413 189.571 240.495 176.237 237.463 161.164C234.432 146.09 226.436 134.984 219.603 136.358C212.769 137.732 209.687 151.066 212.719 166.14C215.75 181.213 223.746 192.319 230.579 190.945Z" fill="white" fill-opacity="0.8"/>
<path d="M306.13 175.749C312.963 174.375 316.045 161.042 313.014 145.968C309.983 130.894 301.986 119.788 295.153 121.162C288.32 122.536 285.238 135.87 288.269 150.944C291.301 166.017 299.297 177.123 306.13 175.749Z" fill="white" fill-opacity="0.8"/>
<path d="M227.02 280.43C225.5 280.43 224.17 279.33 223.91 277.79C223.83 277.28 216.2 226.57 275.27 212.87C334.4 199.16 349.84 251.77 349.99 252.3C350.46 253.98 349.48 255.72 347.8 256.19C346.13 256.66 344.39 255.68 343.92 254.01C343.37 252.07 329.86 206.68 276.7 219.02C223.32 231.4 229.83 274.93 230.14 276.77C230.42 278.49 229.26 280.11 227.54 280.39C227.37 280.42 227.2 280.43 227.02 280.43Z" fill="white" fill-opacity="0.8"/>
<path opacity="0.36" d="M206.068 216.283C216.312 214.223 223.733 208.159 222.643 202.739C221.553 197.319 212.365 194.596 202.121 196.656C191.877 198.716 184.456 204.779 185.546 210.199C186.636 215.619 195.824 218.343 206.068 216.283Z" fill="white"/>
<path opacity="0.36" d="M341 189.155C351.244 187.095 358.665 181.031 357.575 175.611C356.485 170.191 347.297 167.468 337.053 169.528C326.809 171.588 319.388 177.651 320.477 183.071C321.567 188.491 330.755 191.215 341 189.155Z" fill="white"/>
<path d="M217.13 350.45L260.97 357.79L246.98 441.42L163.4 427.43L212.45 407.59L217.13 350.45Z" fill="#909090"/>
<path d="M365.72 342.85C365.72 342.85 339.02 344.7 341.4 359.29C343.78 373.88 355.37 373.85 355.37 373.85C355.37 373.85 344.85 402.15 370.54 402.79C396.23 403.44 409.68 370.96 402.17 351.22C394.66 331.47 365.71 342.85 365.71 342.85H365.72Z" fill="#E6E6E6"/>
<path d="M405.72 322.69C405.72 322.69 348.04 303.15 349.97 327.18C351.9 351.21 382.98 347.5 400.15 350.95C417.32 354.39 426.76 332.5 405.72 322.7V322.69Z" fill="#FFD200"/>
<path opacity="0.44" d="M405.72 322.69C405.72 322.69 348.04 303.15 349.97 327.18C351.9 351.21 382.98 347.5 400.15 350.95C417.32 354.39 426.76 332.5 405.72 322.7V322.69Z" fill="#909090"/>
<path d="M205.5 151.58C204.35 151.58 203.25 150.95 202.69 149.86C201.9 148.31 202.51 146.42 204.06 145.62C204.62 145.33 216.86 138.76 220.01 121.68C220.33 119.97 221.97 118.83 223.68 119.15C225.39 119.47 226.52 121.11 226.21 122.82C222.47 143.08 207.56 150.9 206.93 151.22C206.47 151.46 205.98 151.57 205.5 151.57V151.58Z" fill="white" fill-opacity="0.8"/>
<path d="M315.02 133.06C314.73 133.06 314.44 133.02 314.15 132.94C293.18 126.95 284 112.5 283.62 111.89C282.7 110.41 283.15 108.47 284.63 107.55C286.11 106.63 288.05 107.08 288.97 108.55C289.05 108.68 297.36 121.58 315.89 126.87C317.56 127.35 318.53 129.09 318.06 130.77C317.66 132.15 316.4 133.06 315.03 133.06H315.02Z" fill="white" fill-opacity="0.8"/>
<path d="M128.97 202.76C128.97 202.76 119.25 144.09 146.39 152.36C163.61 157.61 146.97 186.97 152.78 202.76C158.59 218.55 170.97 243.14 158.68 252.03C146.39 260.93 123.75 259.54 128.98 202.76H128.97Z" fill="#E6E6E6"/>
<path opacity="0.73" d="M401.53 417.42C401.53 417.42 396.08 405.77 403.26 401.52C410.44 397.27 421.73 404.98 418.81 410.82C415.89 416.67 409.42 417.42 409.42 417.42H401.54H401.53Z" fill="#68E1FD"/>
<path d="M394.47 417.42L397.52 438.31L416.75 438.39L419.58 417.53L394.47 417.42Z" fill="#24285B"/>
<path d="M407.03 417.47C407.03 417.47 406.58 407.63 415.75 406.96C424.92 406.3 433.16 421.58 426.12 430.75L418.94 417.73L407.03 417.47Z" fill="#68E1FD"/>
<path opacity="0.58" d="M407.03 417.47C407.03 417.47 404.16 405.86 394.47 406.94C384.78 408.02 381.06 420.78 386.38 429.16L394.47 417.42L407.03 417.47Z" fill="#68E1FD"/>
</svg>
